<svg width="116" height="94" viewBox="0 0 116 94" fill="none" xmlns="http://www.w3.org/2000/svg">
<path fill-rule="evenodd" clip-rule="evenodd" d="M51.6502 92.0762C92.2306 98.1681 114.69 89.8243 114.688 66.5838C114.684 31.7231 90.2848 36.6717 79.1911 28.1513C74.1328 24.9601 71.774 22.9488 68.7061 19.6734C66.7207 17.5565 65.3643 16.266 59.6678 9.22079C50.0006 -2.73754 30.3454 -3.36297 13.3493 9.09794C-2.84133 20.97 -3.99889 38.3653 8.21787 58.8177C20.2003 78.8772 38.4615 90.0456 51.6502 92.0762" fill="#E5E5E5"/>
<path fill-rule="evenodd" clip-rule="evenodd" d="M108.381 42.3529L107.722 42.3174L107.895 41.6798C108.245 40.3863 108.423 39.041 108.423 37.6703C108.423 29.5814 102.182 23.0356 94.4942 23.0356C89.4379 23.0356 84.9821 25.8927 82.5422 30.1916C82.5392 30.1905 82.5372 30.1895 82.5341 30.1885C82.5077 30.2352 82.4864 30.287 82.4601 30.3347C82.2551 30.7063 82.0593 31.086 81.8838 31.478C81.8676 31.5145 81.8514 31.55 81.8351 31.5866C81.6606 31.9836 81.5074 32.3917 81.3664 32.807C81.339 32.8862 81.3106 32.9634 81.2853 33.0436C81.1625 33.4253 81.061 33.8162 80.9687 34.2112C80.9454 34.3157 80.915 34.4183 80.8926 34.5229C80.7912 35.0122 80.707 35.5067 80.6532 36.0133L80.5852 36.6469L79.9735 36.4692C79.5961 36.3586 79.2096 36.2753 78.8159 36.2195C78.4233 36.1636 78.0246 36.1352 77.6208 36.1352C75.6679 36.1352 73.8773 36.7992 72.4823 37.9039C72.2825 38.0622 72.0917 38.2288 71.9091 38.4034C71.5439 38.7547 71.2132 39.1375 70.923 39.5497C70.779 39.7558 70.643 39.969 70.5193 40.1883C70.2707 40.6269 70.0647 41.0909 69.9085 41.5752C69.6721 42.3022 69.5453 43.0748 69.5453 43.8759C69.5453 44.1196 69.5575 44.3622 69.5808 44.6029C69.6042 44.8435 69.6387 45.0821 69.6853 45.3177L69.799 45.8974L62.1688 46.6071C62.0471 46.6091 61.976 46.6101 61.906 46.6132C60.8043 46.6599 59.807 47.0244 58.9903 47.6244C57.6289 48.6255 56.7686 50.2825 56.7686 52.2177C56.7686 52.6045 56.8061 52.9832 56.8771 53.3477C57.0557 54.2615 57.4442 55.092 57.989 55.7845C58.2061 56.0607 58.4496 56.3145 58.7124 56.5429C59.2399 56.9988 59.8527 57.3511 60.5202 57.5694C60.854 57.678 61.202 57.7532 61.5611 57.7918C61.7397 57.8111 61.9213 57.8202 62.1049 57.8202H62.1232H75.8982H107.248V57.8111L107.781 57.8192C107.829 57.8202 107.877 57.8202 107.924 57.8202C108.205 57.8202 108.481 57.807 108.754 57.7796C108.812 57.7745 108.867 57.7623 108.924 57.7552C109.139 57.7298 109.353 57.7024 109.562 57.6618C109.606 57.6527 109.649 57.6384 109.694 57.6283C109.912 57.5816 110.13 57.5308 110.341 57.4679C110.37 57.4587 110.399 57.4466 110.428 57.4364C110.652 57.3674 110.875 57.2912 111.089 57.2029C111.096 57.1998 111.103 57.1968 111.109 57.1937C112.073 56.7968 112.939 56.2251 113.665 55.5215C113.665 55.5215 113.665 55.5215 113.665 55.5205C115.108 54.1224 116 52.2004 116 50.0805C116 45.9735 112.65 42.5804 108.381 42.3529Z" fill="#0D4F80"/>
<path fill-rule="evenodd" clip-rule="evenodd" d="M82.5422 30.1915C82.5392 30.1905 82.5372 30.1895 82.5341 30.1885C82.5067 30.2352 82.4864 30.287 82.4601 30.3347C82.2541 30.7063 82.0583 31.086 81.8838 31.4779C81.8666 31.5145 81.8503 31.55 81.8351 31.5866C81.6606 31.9835 81.5064 32.3917 81.3654 32.807C81.339 32.8862 81.3106 32.9633 81.2853 33.0435C81.1625 33.4253 81.0611 33.8162 80.9687 34.2111C80.9444 34.3157 80.915 34.4183 80.8926 34.5228C80.7902 35.0122 80.707 35.5067 80.6532 36.0133L80.5852 36.6469L79.9735 36.4692C79.5961 36.3585 79.2086 36.2753 78.8159 36.2194C78.4233 36.1636 78.0236 36.1352 77.6208 36.1352C75.6679 36.1352 73.8773 36.7992 72.4813 37.9038C72.2825 38.0622 72.0918 38.2287 71.9091 38.4034C71.5439 38.7547 71.2132 39.1384 70.923 39.5496C70.778 39.7557 70.643 39.969 70.5182 40.1883C70.2707 40.6269 70.0648 41.0909 69.9075 41.5752C69.6721 42.3022 69.5453 43.0748 69.5453 43.8759C69.5453 44.1196 69.5575 44.3622 69.5808 44.6028C69.6042 44.8435 69.6387 45.0821 69.6853 45.3176L69.799 45.8974L62.1678 46.6071C62.046 46.6091 61.976 46.6101 61.906 46.6132C60.8043 46.6599 59.807 47.0244 58.9903 47.6244C57.6278 48.6255 56.7686 50.2825 56.7686 52.2177C56.7686 52.6045 56.8061 52.9832 56.8771 53.3477C57.0546 54.2615 57.4442 55.092 57.989 55.7845C58.2061 56.0606 58.4486 56.3145 58.7124 56.5429C59.2399 56.9988 59.8517 57.3511 60.5202 57.5694C60.854 57.678 61.202 57.7532 61.5601 57.7917C61.7397 57.811 61.9213 57.8202 62.1049 57.8202H62.1232H75.8982H107.248V57.811L107.781 57.8191C107.829 57.8202 107.877 57.8202 107.924 57.8202C108.204 57.8202 108.481 57.807 108.754 57.7795C108.812 57.7745 108.867 57.7623 108.923 57.7552C109.138 57.7298 109.352 57.7024 109.561 57.6618C109.606 57.6526 109.649 57.6384 109.694 57.6283C109.912 57.5816 110.129 57.5308 110.34 57.4678C110.37 57.4587 110.399 57.4465 110.428 57.4364C110.652 57.3673 110.874 57.2912 111.089 57.2029C111.096 57.1998 111.102 57.1968 111.109 57.1937C112.073 56.7967 112.939 56.2251 113.665 55.5215C113.665 55.5215 113.665 55.5215 113.665 55.5205C109.426 35.1066 92.9359 35.3067 82.5422 30.1915Z" fill="#083F6B"/>
<path fill-rule="evenodd" clip-rule="evenodd" d="M94.2674 65.943H94.237H70.6496H16.9707L16.9697 65.9257L16.0566 65.941C15.9755 65.943 15.8933 65.943 15.8111 65.943C15.246 65.943 14.6941 65.8983 14.1473 65.8333C14.1514 65.8354 14.1544 65.8374 14.1575 65.8394C14.1199 65.8354 14.0844 65.8252 14.0469 65.8202C13.6259 65.7694 13.2119 65.6963 12.8051 65.609C12.7118 65.5887 12.6174 65.5714 12.5251 65.5491C12.0635 65.4404 11.609 65.3145 11.1677 65.1632C11.1545 65.1592 11.1413 65.1551 11.1291 65.15C10.6848 64.9967 10.2526 64.818 9.83158 64.6231C9.76158 64.5906 9.69158 64.5561 9.62157 64.5226C9.2107 64.3246 8.80692 64.1124 8.42039 63.8779C8.37068 63.8474 8.31793 63.82 8.2672 63.7885C8.00343 63.623 7.7498 63.4443 7.4982 63.2616C7.40689 63.1956 7.31356 63.1336 7.22428 63.0656C7.00109 62.8961 6.78906 62.7163 6.57804 62.5356C6.46948 62.4412 6.35992 62.3488 6.25441 62.2524C6.06469 62.0787 5.88411 61.898 5.70556 61.7142C5.5899 61.5954 5.47628 61.4777 5.36569 61.3548C5.20439 61.1782 5.0512 60.9954 4.90003 60.8106C4.78539 60.6685 4.67278 60.5253 4.56322 60.3781C4.4293 60.1984 4.29944 60.0156 4.17466 59.8298C4.06408 59.6653 3.9606 59.4978 3.85813 59.3293C3.74755 59.1475 3.63899 58.9648 3.53754 58.7769C3.43711 58.5922 3.34479 58.4023 3.25348 58.2114C3.16623 58.0297 3.07797 57.8479 2.99985 57.6611C2.91159 57.454 2.8355 57.2418 2.7584 57.0286C2.69347 56.8489 2.62448 56.6712 2.56767 56.4874C2.49462 56.2549 2.4368 56.0163 2.37694 55.7777C2.33433 55.6061 2.28564 55.4376 2.25013 55.264C2.19331 54.9898 2.15578 54.7106 2.11723 54.4314C2.09694 54.2862 2.06853 54.1431 2.0523 53.9958C2.00969 53.5664 1.98433 53.1308 1.98433 52.6902C1.98433 49.1731 3.41885 45.9627 5.76643 43.5828C6.05962 43.2853 6.36702 43 6.68862 42.73C7.65139 41.9177 8.73388 41.2324 9.90868 40.7003C10.2993 40.5227 10.701 40.3633 11.1119 40.2211C12.3445 39.7947 13.6593 39.5307 15.0299 39.4576L16.1581 39.3967L15.8629 38.3063C15.5626 37.1985 15.3363 36.0695 15.1841 34.9222C15.033 33.7759 14.9559 32.6124 14.9559 31.4387C14.9559 30.7107 14.9924 29.9929 15.0502 29.2801C15.0563 29.1999 15.0604 29.1177 15.0675 29.0375C15.1283 28.3623 15.2197 27.6983 15.3292 27.0404C15.3475 26.9317 15.3657 26.8231 15.385 26.7144C15.5017 26.0707 15.6427 25.4362 15.806 24.8107C15.8334 24.7041 15.8629 24.5985 15.8923 24.4919C16.0647 23.8624 16.2565 23.2431 16.4736 22.6349C16.502 22.5547 16.5334 22.4755 16.5639 22.3953C16.7962 21.7638 17.0478 21.1414 17.3268 20.5353C17.3349 20.518 17.344 20.5018 17.3522 20.4845C17.6342 19.8743 17.9426 19.2803 18.2693 18.7006C18.2977 18.6498 18.3241 18.5991 18.3525 18.5483C18.6741 17.9858 19.02 17.4406 19.3812 16.9086C19.4329 16.8324 19.4836 16.7553 19.5354 16.6801C19.8955 16.1623 20.274 15.6618 20.6696 15.1754C20.7305 15.1003 20.7924 15.0272 20.8532 14.9521C21.257 14.4678 21.677 13.9977 22.1153 13.5469C22.1691 13.491 22.2249 13.4372 22.2786 13.3824C22.7382 12.9184 23.212 12.4696 23.705 12.0452C23.7223 12.031 23.7395 12.0178 23.7568 12.0036C24.2661 11.567 24.7936 11.1528 25.3364 10.7619C25.3567 10.7467 25.3759 10.7314 25.3972 10.7162C25.9278 10.3365 26.4757 9.98314 27.0347 9.64911C27.0976 9.61154 27.1584 9.57296 27.2203 9.53742C27.7661 9.2176 28.3261 8.92214 28.8973 8.64699C28.9744 8.61044 29.0505 8.57389 29.1276 8.53734C29.7018 8.2693 30.2872 8.02359 30.8837 7.80226C30.9537 7.77687 31.0247 7.75251 31.0937 7.72814C31.7106 7.50578 32.3375 7.30678 32.9756 7.13824C33.0061 7.13012 33.0365 7.12301 33.067 7.11591C33.7365 6.94229 34.4152 6.79507 35.1061 6.68237C35.1071 6.68135 35.1082 6.68135 35.1092 6.68135H35.1082C36.3144 6.48337 37.5501 6.37981 38.8071 6.37981C50.967 6.37981 61.1568 15.9938 62.5081 28.6029L62.6248 29.6873L63.6717 29.3827C64.9663 29.005 66.3186 28.8111 67.7004 28.8111C75.3457 28.8111 81.5272 34.7527 81.5272 42.0639C81.5272 42.9005 81.447 43.727 81.2887 44.5352L81.0929 45.5282L94.1599 46.7415C94.3678 46.7455 94.4886 46.7475 94.6093 46.7526C99.6362 46.9658 103.405 51.0464 103.405 56.3483C103.405 61.6564 99.3055 65.943 94.2674 65.943ZM94.6864 44.9271C94.5383 44.921 94.3891 44.918 94.241 44.918L83.2397 43.8925C83.3157 43.2894 83.3543 42.6792 83.3543 42.0639C83.3543 33.7272 76.3379 26.9835 67.7004 26.9835C66.5083 26.9835 65.3335 27.1124 64.1922 27.3632C62.3062 14.3601 51.5808 4.55225 38.8071 4.55225C24.6171 4.55225 13.1298 16.5989 13.1298 31.4387C13.1298 33.5779 13.3692 35.6847 13.8369 37.7275C6.10223 38.6657 0.158203 45.0266 0.158203 52.6902C0.158203 60.8218 6.83167 67.4365 15.174 67.7584V67.7706H70.6496H94.2339H94.2674C100.332 67.7706 105.231 62.6483 105.231 56.3483C105.231 50.0808 100.705 45.1819 94.6864 44.9271Z" fill="#0F2B4A"/>
<path fill-rule="evenodd" clip-rule="evenodd" d="M4.98188 90.0458C2.74082 90.0458 0.923828 88.2274 0.923828 85.9846C0.923828 83.7418 2.74082 81.9233 4.98188 81.9233C7.22293 81.9233 9.03993 83.7418 9.03993 85.9846C9.03993 88.2274 7.22293 90.0458 4.98188 90.0458ZM4.98188 87.9817C6.08364 87.9817 6.97641 87.0882 6.97641 85.9846C6.97641 84.8809 6.08364 83.9864 4.98188 83.9864C3.88113 83.9864 2.98735 84.8809 2.98735 85.9846C2.98735 87.0882 3.88113 87.9817 4.98188 87.9817Z" fill="#0D4F80"/>
<path fill-rule="evenodd" clip-rule="evenodd" d="M94.61 46.7527C94.4893 46.7476 94.3686 46.7456 94.1606 46.7415L81.0937 45.5272L81.2895 44.5342C81.4477 43.7271 81.5279 42.9006 81.5279 42.064C81.5279 34.7527 75.3465 28.8111 67.7011 28.8111C66.3193 28.8111 64.967 29.0051 63.6725 29.3828L62.6255 29.6874L62.5088 28.603C61.1575 15.9939 50.9677 6.37988 38.8088 6.37988C37.5508 6.37988 36.3162 6.48344 35.1099 6.68143C26.7676 11.1468 21.0457 20.247 21.0457 30.7656C21.0457 33.2988 21.3775 35.7833 22.0237 38.1713L22.3423 39.348L21.1248 39.413C13.2441 39.8334 7.05762 46.0978 7.05762 53.6822C7.05762 58.8186 9.89724 63.3144 14.148 65.8334C14.6949 65.8974 15.2468 65.9431 15.8129 65.9431C15.894 65.9431 15.9762 65.9421 16.0574 65.941L16.9704 65.9258L16.9714 65.9431H70.6503H94.2377H94.2681C99.3062 65.9431 103.406 61.6564 103.406 56.3484C103.406 51.0464 99.6369 46.9659 94.61 46.7527Z" fill="white"/>
<path fill-rule="evenodd" clip-rule="evenodd" d="M7.05889 53.6819C7.05889 46.0975 13.2454 39.8331 21.1261 39.4127L22.3425 39.3478L22.024 38.171C21.3787 35.784 21.047 33.2985 21.047 30.7664C21.047 20.2467 26.7688 11.1465 35.1101 6.68115H35.1112C35.1101 6.68115 35.1081 6.68115 35.1071 6.68217C34.4172 6.79487 33.7385 6.94209 33.069 7.11571C33.0385 7.12383 33.0081 7.12992 32.9776 7.13804C32.3385 7.30658 31.7126 7.50558 31.0957 7.72794C31.0267 7.75332 30.9557 7.77667 30.8857 7.80206C30.2882 8.02339 29.7038 8.2691 29.1296 8.53816C29.0525 8.57369 28.9764 8.61024 28.8993 8.64781C28.3281 8.92194 27.7681 9.2174 27.2223 9.53722C27.1594 9.57377 27.0985 9.61134 27.0367 9.64891C26.4777 9.98294 25.9298 10.3373 25.3992 10.717C25.3779 10.7312 25.3587 10.7465 25.3384 10.7617C24.7946 11.1526 24.2681 11.5668 23.7578 12.0034C23.7415 12.0176 23.7243 12.0308 23.707 12.045C23.214 12.4694 22.7402 12.9182 22.2806 13.3822C22.2269 13.437 22.1711 13.4908 22.1173 13.5467C21.679 13.9975 21.259 14.4676 20.8552 14.9519C20.7944 15.027 20.7325 15.1001 20.6716 15.1752C20.276 15.6616 19.8975 16.1621 19.5374 16.6799C19.4856 16.7551 19.4349 16.8322 19.3832 16.9084C19.022 17.4414 18.6761 17.9856 18.3545 18.5481C18.325 18.5989 18.2997 18.6506 18.2713 18.7004C17.9436 19.2812 17.6362 19.8751 17.3531 20.4843C17.346 20.5016 17.3369 20.5178 17.3288 20.5361C17.0498 21.1412 16.7982 21.7636 16.5659 22.3951C16.5354 22.4753 16.504 22.5545 16.4756 22.6347C16.2585 23.2429 16.0657 23.8622 15.8933 24.4917C15.8649 24.5983 15.8354 24.7039 15.808 24.8105C15.6447 25.436 15.5037 26.0705 15.387 26.7142C15.3677 26.8229 15.3495 26.9315 15.3312 27.0402C15.2206 27.6981 15.1303 28.3621 15.0695 29.0373C15.0624 29.1175 15.0583 29.1997 15.0522 29.2799C14.9944 29.9927 14.9579 30.7105 14.9579 31.4385C14.9579 32.6132 15.035 33.7767 15.1861 34.922C15.3383 36.0693 15.5646 37.1994 15.8649 38.306L16.1601 39.3975L15.0319 39.4574C13.6613 39.5305 12.3465 39.7945 11.1139 40.2209C10.703 40.3631 10.3013 40.5235 9.91068 40.7001C8.73588 41.2322 7.65339 41.9185 6.69062 42.7298C6.36902 42.9998 6.06162 43.2851 5.76843 43.5826C3.42085 45.9625 1.98633 49.1729 1.98633 52.69C1.98633 53.1316 2.01068 53.5662 2.0543 53.9956C2.07053 54.1429 2.09894 54.286 2.11923 54.4312C2.15778 54.7114 2.19532 54.9907 2.25213 55.2648C2.28764 55.4374 2.33633 55.6069 2.37894 55.7775C2.4388 56.0161 2.49663 56.2547 2.56967 56.4882C2.62649 56.671 2.69547 56.8497 2.7604 57.0284C2.8375 57.2416 2.91359 57.4538 3.00084 57.6609C3.07997 57.8477 3.16823 58.0295 3.25548 58.2112C3.34679 58.4021 3.43911 58.592 3.53955 58.7778C3.641 58.9646 3.74955 59.1473 3.86013 59.3291C3.9626 59.4986 4.06608 59.6651 4.17666 59.8296C4.30144 60.0154 4.4313 60.1982 4.56522 60.3779C4.67479 60.5251 4.7874 60.6683 4.90204 60.8104C5.05218 60.9962 5.20639 61.1779 5.3677 61.3556C5.47726 61.4775 5.5919 61.5952 5.70654 61.714C5.88611 61.8978 6.0667 62.0785 6.2554 62.2522C6.36192 62.3496 6.47149 62.441 6.58004 62.5354C6.79106 62.7161 7.00309 62.8959 7.22628 63.0654C7.31455 63.1334 7.4089 63.1964 7.5002 63.2624C7.7518 63.4441 8.00543 63.6228 8.2692 63.7883C8.31993 63.8198 8.37167 63.8472 8.42239 63.8777C8.80892 64.1122 9.2127 64.3244 9.62358 64.5224C9.69358 64.5559 9.76358 64.5904 9.83358 64.6229C10.2546 64.8178 10.6868 64.9965 11.1311 65.1498C11.1433 65.1549 11.1565 65.159 11.1697 65.163C11.611 65.3153 12.0655 65.4402 12.5271 65.5489C12.6194 65.5712 12.7138 65.5885 12.8071 65.6088C13.2139 65.6961 13.6279 65.7692 14.0489 65.821C14.0824 65.825 14.1158 65.8291 14.1493 65.8331C9.89749 63.3142 7.05889 58.8184 7.05889 53.6819Z" fill="#C6EDF6"/>
<path fill-rule="evenodd" clip-rule="evenodd" d="M83.983 10.9571L82.6956 12.2455L80.3866 9.93466L78.0765 12.2465L76.7881 10.9571L79.0981 8.64521L76.7891 6.33437L78.0765 5.04594L80.3866 7.35678L82.6956 5.04492L83.984 6.33437L81.674 8.64623L83.983 10.9571Z" fill="#6EE3FF"/>
<path fill-rule="evenodd" clip-rule="evenodd" d="M96.1371 79.1707L95.0567 80.252L93.5745 78.7686L92.0912 80.253L91.0098 79.1707L92.493 77.6863L91.0098 76.2029L92.0912 75.1216L93.5734 76.605L95.0567 75.1206L96.1371 76.2029L94.6549 77.6873L96.1371 79.1707Z" fill="#0F2B4A"/>
<path fill-rule="evenodd" clip-rule="evenodd" d="M62.8093 63.6477H50.1574L52.6642 56.5405H34.403L25.5352 71.3417L40.4901 71.2351V91.0611L62.8093 63.6477Z" fill="#EC0000"/>
<path fill-rule="evenodd" clip-rule="evenodd" d="M62.8095 63.6479H50.1575L40.4902 91.0613L62.8095 63.6479Z" fill="#990000"/>
</svg>
