<svg width="109" height="114" viewBox="0 0 109 114" fill="none" xmlns="http://www.w3.org/2000/svg">
<g id="Group">
<path id="Vector" fill-rule="evenodd" clip-rule="evenodd" d="M58.3728 113.368C93.7838 108.155 99.2213 100.367 104.358 91.794C114.304 75.1933 105.686 45.4085 85.2696 45.5736C65.3533 49.7018 69.4569 16.155 31.1742 27.0344C7.18955 33.8506 -3.51987 53.1964 1.85605 71.7787C7.23297 90.3609 22.9629 118.581 58.3728 113.368Z" fill="#E5E5E5"/>
<path id="Vector_2" fill-rule="evenodd" clip-rule="evenodd" d="M47.1512 -0.000610352C46.5968 -0.000610352 46.1495 0.44273 46.1495 0.99115V6.96073C46.1495 7.50815 46.5968 7.95249 47.1512 7.95249C47.7045 7.95249 48.1529 7.50815 48.1529 6.96073V0.99115C48.1529 0.44273 47.7045 -0.000610352 47.1512 -0.000610352ZM40.5563 12.5574H34.5422C33.9889 12.5574 33.5396 13.0008 33.5396 13.5482C33.5396 14.0966 33.9889 14.5399 34.5422 14.5399H40.5563C41.1107 14.5399 41.558 14.0966 41.558 13.5482C41.558 13.0008 41.1107 12.5574 40.5563 12.5574ZM38.1917 3.52069C37.7989 3.13339 37.1658 3.13239 36.776 3.52069C36.3852 3.90799 36.3862 4.53647 36.778 4.92377L42.1418 10.0757C42.5346 10.463 43.1677 10.463 43.5575 10.0757C43.9483 9.68842 43.9473 9.05994 43.5555 8.67164L38.1917 3.52069Z" fill="#EC0000"/>
<path id="Vector_3" fill-rule="evenodd" clip-rule="evenodd" d="M91.9358 22.082L90.8604 23.1488L89.3852 21.6857L87.9089 23.1488L86.8325 22.082L88.3088 20.6199L86.8325 19.1578L87.9089 18.091L89.3852 19.5531L90.8604 18.09L91.9368 19.1568L90.4606 20.6199L91.9358 22.082Z" fill="#6EE3FF"/>
<path id="Vector_4" fill-rule="evenodd" clip-rule="evenodd" d="M18.3789 67.8351C16.426 67.8351 14.8447 66.2669 14.8447 64.3324C14.8447 62.3979 16.426 60.8297 18.3789 60.8297C20.3317 60.8297 21.913 62.3979 21.913 64.3324C21.913 66.2669 20.3317 67.8351 18.3789 67.8351ZM18.3789 65.8335C19.2149 65.8335 19.8935 65.162 19.8935 64.3324C19.8935 63.5028 19.2149 62.8312 18.3789 62.8312C17.5428 62.8312 16.8642 63.5028 16.8642 64.3324C16.8642 65.162 17.5428 65.8335 18.3789 65.8335Z" fill="#0D4F80"/>
<path id="Vector_5" fill-rule="evenodd" clip-rule="evenodd" d="M91.9358 70.1189L90.8604 71.1847L89.3852 69.7226L87.9089 71.1857L86.8325 70.1189L88.3088 68.6558L86.8325 67.1937L87.9089 66.1268L89.3852 67.59L90.8604 66.1268L91.9368 67.1937L90.4606 68.6568L91.9358 70.1189Z" fill="white"/>
<path id="Vector_6" fill-rule="evenodd" clip-rule="evenodd" d="M68.6402 89.6503C68.5524 89.6143 68.4787 89.5572 68.408 89.4972C68.3918 89.4842 68.3727 89.4792 68.3595 89.4652C68.1959 89.309 68.095 89.0919 68.0859 88.8517H63.3289C63.3289 88.8527 63.3279 88.8537 63.3269 88.8557C63.3178 89.0949 63.2189 89.31 63.0553 89.4652C63.0412 89.4792 63.022 89.4852 63.0058 89.4982C62.9351 89.5582 62.8614 89.6143 62.7736 89.6503C62.6676 89.6943 62.5504 89.7203 62.4262 89.7203H21.8716V93.8555H85.6879V89.7203H68.9886C68.8654 89.7203 68.7463 89.6943 68.6402 89.6503Z" fill="white"/>
<g id="Group_2">
<path id="Vector_7" fill-rule="evenodd" clip-rule="evenodd" d="M21.8706 96.9254H85.6869V93.8551H21.8706V96.9254Z" fill="#EC0000"/>
<path id="Vector_8" fill-rule="evenodd" clip-rule="evenodd" d="M63.7121 56.5804H41.2693L39.1216 65.9516H65.9466L63.7121 56.5804Z" fill="#EC0000"/>
<path id="Vector_9" fill-rule="evenodd" clip-rule="evenodd" d="M61.728 48.267L54.4154 17.5995H50.1987L43.1729 48.267H61.728Z" fill="#EC0000"/>
<path id="Vector_10" fill-rule="evenodd" clip-rule="evenodd" d="M68.0852 88.8512C68.0852 88.8402 68.0781 88.8302 68.0781 88.8192C68.0781 88.3218 68.485 87.9185 68.9879 87.9185H71.1841L67.9287 74.2631H37.2181L34.0889 87.9185H62.4255C62.9284 87.9185 63.3343 88.3218 63.3343 88.8192C63.3343 88.8302 63.3282 88.8402 63.3282 88.8512H68.0852Z" fill="#EC0000"/>
</g>
<path id="Vector_11" fill-rule="evenodd" clip-rule="evenodd" d="M70.8213 72.4416L69.3349 65.9516L68.2535 61.23L67.1882 56.5804L65.2848 48.267L58.261 17.5995H54.4168L61.7295 48.267H43.1743L41.2699 56.5804H63.7126L65.9472 65.9516H39.1221L37.2188 74.263H67.9293L71.1848 87.9184H74.3665L70.8213 72.4416Z" fill="white"/>
<path id="Vector_12" fill-rule="evenodd" clip-rule="evenodd" d="M85.687 93.8551V96.9255H21.8708V93.8551V89.7199H62.4254C62.5496 89.7199 62.6667 89.6949 62.7738 89.6499C62.8606 89.6139 62.9353 89.5588 63.005 89.4978C63.0212 89.4858 63.0404 89.4788 63.0545 89.4647C63.215 89.3096 63.317 89.0935 63.3261 88.8553C63.3271 88.8533 63.3281 88.8523 63.3281 88.8513C63.3281 88.8403 63.3342 88.8303 63.3342 88.8192C63.3342 88.3219 62.9283 87.9186 62.4254 87.9186H34.0888L37.218 74.2631L39.1224 65.9517L41.2701 56.5805L43.1735 48.2671L50.1993 17.5996H54.4161H58.2602L65.284 48.2671L67.1884 56.5805L68.2527 61.2301L69.3351 65.9517L70.8205 72.4417L74.3657 87.9186H71.185H68.9878C68.4859 87.9186 68.079 88.3219 68.079 88.8192C68.079 88.8303 68.0851 88.8403 68.0851 88.8513C68.0942 89.0915 68.1972 89.3086 68.3587 89.4647C68.3729 89.4788 68.391 89.4848 68.4072 89.4978C68.4769 89.5578 68.5526 89.6139 68.6394 89.6499C68.7465 89.6949 68.8646 89.7199 68.9878 89.7199H85.687V93.8551ZM76.2297 87.9186L59.7112 15.7972H48.7483L32.2258 87.9186H20.0532V98.7268H87.5046V87.9186H76.2297Z" fill="#0F2B4A"/>
</g>
</svg>
